# xmcd
#
# Track frame offsets: 
#        151
#        22467
#        44037
#        86026
#        107709
#        137606
#        157669
#        182483
#        202890
#        229791
#
# Disc length: 3261 seconds
#
# Revision: 0
# Processed by: cddbd v1.5PL3 Copyright (c) Steve Scherf et al.
# Submitted via: ExactAudioCopy v0.95a4
#
DISCID=800cbb0a
DTITLE=James Bolden - The Legends Vol. 3
DYEAR=2001
DGENRE=Blues
TTITLE0=Your Barking Up The Wrong Tree
TTITLE1=Friday Is My Holiday
TTITLE2=I Believe
TTITLE3=I've Been trying To Get Close To You
TTITLE4=It's A Good Thing
TTITLE5=Your Love Is Like A Love Song
TTITLE6=Please Send Me Someone To Love
TTITLE7=I've Got The Blues So Bad
TTITLE8=You Better Change Your Ways
TTITLE9=Let Me Be Your Little Wheel
EXTD=
EXTT0=
EXTT1=
EXTT2=
EXTT3=
EXTT4=
EXTT5=
EXTT6=
EXTT7=
EXTT8=
EXTT9=
PLAYORDER=
